<svg width="355" height="114" viewBox="0 0 355 114" fill="none" xmlns="http://www.w3.org/2000/svg">
<path fill-rule="evenodd" clip-rule="evenodd" d="M50.9214 83.9309C50.9214 66.148 60.4026 54.6707 73.7851 54.6707C87.1676 54.6707 96.7169 66.2387 96.7169 83.9309C96.7169 101.623 87.1676 113.214 73.7851 113.214C60.4026 113.214 50.9214 101.736 50.9214 83.9309ZM84.9448 83.9309C84.9448 72.3175 80.7712 65.5809 73.8758 65.5809C66.9804 65.5809 62.8749 72.3856 62.8749 83.9309C62.8749 95.4761 66.9804 102.304 73.8758 102.304C80.7712 102.304 84.9448 95.4988 84.9448 83.9309Z" fill="#1877EE"/>
<path fill-rule="evenodd" clip-rule="evenodd" d="M105.223 55.8724H115.248L132.986 87.7863H133.145V55.8724H144.599V111.988H134.506L116.768 80.0063H116.609V111.988H105.223V55.8724Z" fill="#1877EE"/>
<path fill-rule="evenodd" clip-rule="evenodd" d="M257.648 55.8724H279.854C291.739 55.8724 299.02 62.6771 299.02 74.0182C299.225 77.6277 298.271 81.2082 296.295 84.2363C294.32 87.2645 291.428 89.5814 288.042 90.8484V91.0072L299.383 112.011H286.636L275.907 92.3001H269.397V112.011H257.534L257.648 55.8724ZM278.493 81.3672C284.118 81.3672 287.157 78.8041 287.157 73.9048C287.157 69.0054 284.186 66.7825 278.493 66.7825H269.42V81.3672H278.493Z" fill="#1877EE"/>
<path fill-rule="evenodd" clip-rule="evenodd" d="M306.823 55.8724V66.7599H325.014V111.988H336.877V66.7599H355V55.8724H306.823Z" fill="#1877EE"/>
<path fill-rule="evenodd" clip-rule="evenodd" d="M207.429 67.6218H247.985V55.8724H207.429V67.6218Z" fill="#1877EE"/>
<path fill-rule="evenodd" clip-rule="evenodd" d="M207.27 111.988H247.985V100.239H207.27V111.988Z" fill="#1877EE"/>
<path fill-rule="evenodd" clip-rule="evenodd" d="M194.886 89.8053H235.442V78.0559H194.886V89.8053Z" fill="#1877EE"/>
<path fill-rule="evenodd" clip-rule="evenodd" d="M187.219 94.8862C185.518 100.262 182.161 103.12 177.284 103.12C175.418 103.131 173.576 102.686 171.92 101.824C170.264 100.963 168.843 99.7101 167.781 98.1751C165.27 94.8937 164.015 89.828 164.015 82.978C163.69 78.1324 165.053 73.3236 167.871 69.3686C168.94 67.8817 170.346 66.6702 171.975 65.8341C173.604 64.998 175.408 64.5613 177.239 64.56C178.663 64.4804 180.086 64.7319 181.397 65.2947C182.707 65.8574 183.869 66.7162 184.792 67.8035C185.556 68.7795 186.196 69.8461 186.698 70.9791L197.222 67.5994C196.059 64.6931 194.243 62.0932 191.914 60.0008C187.882 56.3944 182.625 54.4635 177.216 54.6025C173.992 54.5793 170.8 55.2382 167.848 56.536C164.897 57.8339 162.253 59.7413 160.091 62.133C155.298 67.1684 152.909 74.1168 152.924 82.978C152.924 93.0943 155.192 100.655 159.728 105.66C161.94 108.114 164.661 110.056 167.701 111.349C170.742 112.642 174.028 113.255 177.33 113.145C180.085 113.256 182.834 112.815 185.416 111.85C187.999 110.884 190.362 109.412 192.368 107.52C194.941 104.985 196.877 101.875 198.016 98.4473L187.219 94.8862Z" fill="#1877EE"/>
<path fill-rule="evenodd" clip-rule="evenodd" d="M34.7265 94.8867C33.0254 100.353 29.7138 103.12 24.7917 103.12C22.9228 103.143 21.0772 102.704 19.4191 101.841C17.761 100.978 16.3419 99.7191 15.2878 98.1756C12.7928 94.8867 11.5679 89.8285 11.5679 82.9785C11.2477 78.1367 12.601 73.332 15.4012 69.3691C16.4757 67.8832 17.8867 66.6727 19.5189 65.8369C21.1511 65.0011 22.958 64.5637 24.7917 64.5605C26.2414 64.4581 27.6945 64.7055 29.0287 65.2818C30.3629 65.8581 31.5391 66.7464 32.4583 67.8721C33.2165 68.8229 33.8493 69.8673 34.3409 70.9796L44.8655 67.5999C43.7023 64.6936 41.8863 62.0937 39.5579 60.0014C35.5159 56.3955 30.2519 54.4651 24.8371 54.603C21.6166 54.5815 18.428 55.2414 15.4805 56.5392C12.533 57.837 9.89333 59.7435 7.73464 62.1335C2.91088 67.1689 0.49144 74.1173 0.476318 82.9785C0.476318 93.0948 2.74454 100.656 7.281 105.661C9.49061 108.119 12.2108 110.065 15.2512 111.362C18.2916 112.659 21.5787 113.275 24.8824 113.169C27.6424 113.277 30.3961 112.833 32.9823 111.863C35.5686 110.893 37.9352 109.417 39.9435 107.521C42.5164 104.985 44.4519 101.876 45.5913 98.4478L34.7265 94.8867Z" fill="#1877EE"/>
<path d="M8.80072 4.74707L16.3085 23.9363L23.8617 4.74707H32.6625L19.5294 36.2754H13.0877L0 4.74707H8.80072Z" fill="black"/>
<path d="M47.1108 13.2757H54.7094V36.2755H47.1108V33.2134C46.3437 34.2063 45.351 35.0019 44.2149 35.5345C43.0789 36.067 41.8322 36.321 40.5784 36.2755C39.097 36.2968 37.628 36.003 36.2687 35.4136C34.983 34.8518 33.8253 34.0337 32.8664 33.0093C31.8844 31.9477 31.1145 30.7082 30.5982 29.3574C30.0583 27.9065 29.7893 26.3689 29.8043 24.821C29.7526 21.8692 30.8226 19.0077 32.7983 16.8141C33.7752 15.7434 34.967 14.8909 36.296 14.3124C37.6249 13.7339 39.061 13.4425 40.5103 13.4572C41.7532 13.4329 42.9865 13.6778 44.1259 14.1751C45.2652 14.6723 46.2834 15.4101 47.1108 16.3378V13.2757ZM37.607 24.7756C37.6041 26.0919 38.1076 27.3589 39.0133 28.314C39.4433 28.7724 39.9702 29.1288 40.5557 29.3574C41.1674 29.6092 41.8221 29.7401 42.4837 29.743C43.1378 29.74 43.7851 29.609 44.389 29.3574C44.9744 29.1288 45.5014 28.7724 45.9314 28.314C46.3707 27.8596 46.7242 27.3293 46.9748 26.749C47.2363 26.1562 47.3677 25.5142 47.3604 24.8663C47.3574 24.2122 47.2264 23.5649 46.9748 22.961C46.7242 22.3807 46.3707 21.8504 45.9314 21.3959C45.5014 20.9376 44.9744 20.5811 44.389 20.3526C43.7892 20.0879 43.1392 19.9563 42.4837 19.967C41.8211 19.9587 41.1641 20.0901 40.5557 20.3526C39.9702 20.5811 39.4433 20.9376 39.0133 21.3959C38.5818 21.8349 38.2357 22.3502 37.9926 22.9157C37.7411 23.5036 37.61 24.1361 37.607 24.7756Z" fill="black"/>
<path d="M58.9739 13.2757H66.9127V17.4039C67.6627 16.1247 68.7238 15.0558 69.9975 14.2964C71.3008 13.5504 72.783 13.174 74.2844 13.2077H74.9649C75.2517 13.1854 75.5399 13.1854 75.8268 13.2077V20.8743C74.7687 20.3294 73.5917 20.0566 72.4018 20.0804C71.6332 20.0253 70.8621 20.1457 70.1469 20.4326C69.4317 20.7194 68.7911 21.1652 68.2736 21.7362C67.254 23.1221 66.7706 24.8302 66.9127 26.5449V36.2302H58.9739V13.2757Z" fill="black"/>
<path d="M78.5941 4.74701C78.5988 4.2098 78.7066 3.67849 78.9117 3.18194C79.115 2.69499 79.4161 2.25494 79.7963 1.88905C80.1543 1.50989 80.5867 1.20873 81.0665 1.00444C81.5631 0.799379 82.0944 0.691578 82.6316 0.68689C83.169 0.689277 83.7008 0.797167 84.1967 1.00444C85.2205 1.43445 86.0349 2.24882 86.4649 3.27267C86.6739 3.77196 86.7815 4.30782 86.7815 4.84908C86.7815 5.39035 86.6739 5.92621 86.4649 6.4255C86.0349 7.44934 85.2205 8.26372 84.1967 8.69373C83.7053 8.90273 83.1769 9.01045 82.6429 9.01045C82.109 9.01045 81.5805 8.90273 81.0892 8.69373C80.5802 8.48394 80.1177 8.17552 79.7285 7.78623C79.3392 7.39695 79.0308 6.93449 78.821 6.4255C78.6136 5.92172 78.5058 5.38253 78.5034 4.83774L78.5941 4.74701ZM86.601 13.3436V36.2754H78.7302V13.3436H86.601Z" fill="black"/>
<path d="M107.06 20.8744C105.896 20.0336 104.504 19.5668 103.068 19.5361C102.376 19.5277 101.69 19.6588 101.049 19.9217C100.436 20.1707 99.8741 20.5322 99.3935 20.9878C98.912 21.4564 98.5334 22.0204 98.2821 22.6436C98.0078 23.3207 97.869 24.0451 97.8738 24.7757C97.8732 25.4912 98.0119 26.2 98.2821 26.8625C98.5259 27.4775 98.8969 28.034 99.3709 28.4956C99.8358 28.9761 100.401 29.3479 101.027 29.5844C101.678 29.8365 102.37 29.9672 103.068 29.97C104.534 29.9573 105.948 29.427 107.06 28.4729V34.9827C105.386 35.753 103.572 36.1699 101.73 36.2076C100.183 36.2137 98.6466 35.9449 97.1934 35.4137C95.8039 34.8976 94.5309 34.1105 93.4484 33.0981C92.3659 32.0857 91.4955 30.8681 90.8877 29.5163C90.2299 28.0552 89.8971 26.4687 89.9124 24.8664C89.9008 23.2472 90.2172 21.6423 90.8423 20.1485C91.4356 18.7552 92.3068 17.4975 93.4027 16.4523C94.4986 15.4071 95.7962 14.5964 97.2161 14.0697C98.7324 13.5027 100.338 13.2108 101.957 13.2078C103.728 13.1878 105.478 13.5923 107.06 14.3872V20.8744Z" fill="black"/>
<path d="M117.199 26.0913C117.199 29.3349 118.719 30.9453 121.736 30.9453C122.479 30.9831 123.218 30.8172 123.874 30.4654C124.529 30.1136 125.076 29.5893 125.456 28.9493H132.691C131.179 33.8335 127.527 36.2756 121.736 36.2756C120.059 36.302 118.392 36.0253 116.814 35.4591C115.395 34.9723 114.09 34.2004 112.98 33.1909C111.916 32.1857 111.081 30.9635 110.531 29.6071C109.882 28.1277 109.558 26.5269 109.578 24.9118C109.544 23.2791 109.821 21.6549 110.395 20.1259C110.883 18.7617 111.657 17.5169 112.663 16.474C113.726 15.4715 114.985 14.6994 116.36 14.2058C117.935 13.6597 119.593 13.3911 121.259 13.4119C122.904 13.3911 124.539 13.6598 126.091 14.2058C127.459 14.6863 128.705 15.4605 129.743 16.474C130.764 17.5486 131.538 18.8337 132.011 20.2393C132.622 21.8951 132.937 23.6457 132.941 25.4108V26.2047L117.199 26.0913ZM125.955 21.7136C125.746 20.7207 125.211 19.8263 124.435 19.1732C123.64 18.5325 122.643 18.1949 121.622 18.2206C120.6 18.1825 119.597 18.5035 118.787 19.1279C118.033 19.7978 117.542 20.7146 117.403 21.7136H125.955Z" fill="black"/>
<path d="M135.413 13.2757H143.193V16.9049C144.039 15.787 145.145 14.8917 146.414 14.2964C147.634 13.8178 148.937 13.5865 150.247 13.6159C151.61 13.5881 152.963 13.851 154.217 14.3871C155.299 14.883 156.259 15.6109 157.029 16.5193C157.64 17.2531 158.082 18.1128 158.322 19.037C158.55 20.0724 158.664 21.1296 158.662 22.1898V36.2755H150.882V25.0705C150.904 24.1802 150.828 23.2903 150.656 22.4166C150.52 21.8163 150.231 21.2615 149.816 20.8062C149.49 20.475 149.095 20.2195 148.66 20.0577C148.211 19.9219 147.745 19.8531 147.276 19.8536C146.717 19.8133 146.156 19.8983 145.634 20.1023C145.112 20.3064 144.643 20.6243 144.259 21.033C143.495 21.9961 143.115 23.2084 143.193 24.4354V36.2755H135.413V13.2757Z" fill="black"/>
<path d="M173.224 20.5339V36.2754H165.149V20.5339H161.135V13.389H165.149V4.79245H173.224V13.389H177.262V20.5339H173.224Z" fill="black"/>
</svg>
